<svg viewBox="0 0 34 34" xmlns="http://www.w3.org/2000/svg" xml:space="preserve" style="fill-rule:evenodd;clip-rule:evenodd;stroke-linejoin:round;stroke-miterlimit:2">
  <path d="M620.408 312.185c1.358-2.717 3.872-4.391 6.592-4.391 2.72 0 5.234 1.674 6.592 4.391l39.971 79.941c1.535 3.069 1.533 6.849-.005 9.917-1.537 3.068-4.377 4.957-7.451 4.957h-78.214c-3.074 0-5.914-1.889-7.451-4.957-1.538-3.068-1.54-6.848-.005-9.917l39.971-79.941Z" style="fill:#ff79c6" transform="matrix(0 .15111 .13109 0 -23.347 -77.747)"/>
  <path d="M620.408 312.185c1.358-2.717 3.872-4.391 6.592-4.391 2.72 0 5.234 1.674 6.592 4.391l39.971 79.941c1.535 3.069 1.533 6.849-.005 9.917-1.537 3.068-4.377 4.957-7.451 4.957h-78.214c-3.074 0-5.914-1.889-7.451-4.957-1.538-3.068-1.54-6.848-.005-9.917l39.971-79.941Z" style="fill:#ff79c6" transform="matrix(0 .15111 .13109 0 -36.352 -77.747)"/>
</svg>