<svg viewBox="0 0 1000 1000" xmlns="http://www.w3.org/2000/svg">
  <defs>
    <linearGradient id="a" x1="0%" y1="0%" x2="100%" y2="0%">
      <stop offset="0%" style="stop-color:#fe4065;stop-opacity:1"/>
      <stop offset="100%" style="stop-color:#ff4a2c;stop-opacity:1"/>
    </linearGradient>
  </defs>
  <path d="M126.43 12.88c-23.6 4.2-54.28 21.24-73.16 40.38C8.43 97.84-2.06 161.29 25.73 219.5c10.75 22.03 11.8 23.34 139.5 151.3l128.75 129.28-128.75 129.01C38.58 756.53 36.48 758.63 25.73 780.66c-20.98 43-20.98 85.49 0 127.96 17.31 35.66 43.79 59 82.86 73.16 35.92 13.11 73.16 10.49 110.92-7.61 22.03-10.49 23.08-11.54 151.56-139.24l129.01-128.75 129.27 128.49c136.62 136.35 137.4 136.88 174.9 149.46 19.93 6.82 61.36 6.82 81.29 0 35.14-11.8 66.87-35.92 82.86-63.19 26.49-45.36 28.58-95.19 5.77-141.07-10.22-20.72-14.95-25.7-139.5-150.78L706.19 500.08l128.75-129.27c127.7-128.23 128.75-129.27 139.24-151.3 18.09-37.76 20.72-74.99 7.61-110.92-8.92-24.65-19.14-40.64-36.19-57.16C900.5 7.9 836.52-1.8 779.88 25.99c-20.72 10.23-25.7 14.95-150.52 139.5L500.09 293.98 371.08 165.22C242.59 37.26 241.8 36.48 219.51 25.99c-32.25-15.48-60.31-19.41-93.08-13.11z" fill="url(#a)"/>
</svg>
