<svg viewBox="0 0 34 34" xmlns="http://www.w3.org/2000/svg" xml:space="preserve" style="fill-rule:evenodd;clip-rule:evenodd;stroke-linejoin:round;stroke-miterlimit:2">
  <path d="M381 245.272c0-5.776-4.69-10.466-10.466-10.466h-20.931c-5.777 0-10.466 4.69-10.466 10.466V362.84c0 5.776 4.689 10.466 10.466 10.466h20.931c5.776 0 10.466-4.69 10.466-10.466V245.272Z" style="fill:#ff79c6" transform="translate(-36.323 -24.466) scale(.13638)"/>
  <path d="M381 245.272c0-5.776-4.69-10.466-10.466-10.466h-20.931c-5.777 0-10.466 4.69-10.466 10.466V362.84c0 5.776 4.689 10.466 10.466 10.466h20.931c5.776 0 10.466-4.69 10.466-10.466V245.272Z" style="fill:#ff79c6" transform="translate(-27.886 -24.466) scale(.13638)"/>
</svg>
