<svg width="512" height="512" xmlns="http://www.w3.org/2000/svg" xml:space="preserve" fill="#ff79c6">
  <path d="m482.197 374.266-78.717-45.448c-15.89-9.174-35.829 2.308-35.829 20.686v27.587H151.058c-63.597-.001-115.337-51.74-115.337-115.338 0-9.864-7.997-17.86-17.86-17.86-9.864 0-17.86 7.997-17.86 17.86 0 83.294 67.765 151.058 151.058 151.058H367.65v27.587c0 18.347 19.913 29.876 35.829 20.686l78.717-45.447c15.89-9.172 15.917-32.181.001-41.371zM360.942 99.189H144.349V71.601c0-18.347-19.913-29.876-35.829-20.686L29.803 96.362c-15.889 9.173-15.917 32.182 0 41.372l78.717 45.448c15.89 9.174 35.829-2.309 35.829-20.686v-27.587h216.593c63.598 0 115.337 51.739 115.337 115.337 0 9.864 7.997 17.86 17.86 17.86 9.864 0 17.86-7.997 17.86-17.86.001-83.293-67.764-151.057-151.057-151.057z"/>
  <g stroke-width="0" stroke="#000">
    <path d="M118 511.5c-65.193 0-118-52.807-118-118s52.807-118 118-118 118 52.807 118 118-52.807 118-118 118z" opacity="undefined" stroke="none"/>
    <text font-weight="bold" xml:space="preserve" font-family="Noto Sans JP" font-size="250" y="470" x="54.641" fill="#282a36">1</text>
  </g>
</svg>
