<svg xmlns="http://www.w3.org/2000/svg" viewBox="0 0 230.055 230.055" style="enable-background:new 0 0 230.055 230.055" xml:space="preserve">
  <path d="M199.419 124.497a9 9 0 0 0-12.729 12.728l12.637 12.636h-8.406a35.309 35.309 0 0 1-22.453-8.083l-32.346-26.751 32.345-26.751a35.314 35.314 0 0 1 22.454-8.083h8.406L186.69 92.83a9 9 0 0 0 6.364 15.364 8.975 8.975 0 0 0 6.364-2.636l28-28a9 9 0 0 0 0-12.728l-28-28a9 9 0 0 0-12.729 12.728l12.637 12.636h-8.406a53.36 53.36 0 0 0-33.926 12.211L122 103.348 82.564 70.733a37.306 37.306 0 0 0-23.724-8.54H9c-4.971 0-9 4.029-9 9s4.029 9 9 9h49.841c4.462 0 8.813 1.566 12.252 4.411l36.786 30.423-36.785 30.423a19.27 19.27 0 0 1-12.253 4.411H9c-4.971 0-9 4.029-9 9s4.029 9 9 9h49.841c8.64 0 17.065-3.033 23.725-8.54L122 126.707l34.996 28.943a53.346 53.346 0 0 0 33.925 12.211h8.406l-12.637 12.636a9 9 0 0 0 6.364 15.364 8.975 8.975 0 0 0 6.364-2.636l28-28a9 9 0 0 0 0-12.728l-27.999-28z" fill="#ff79c6"/>
</svg>
